<svg width="1527" height="262" viewBox="0 0 1527 262" fill="none" xmlns="http://www.w3.org/2000/svg">
<g clip-path="url(#clip0_3480_24)">
<rect width="1527" height="262" fill="#070708"/>
<path d="M88.1559 295V260.3H115.677V120.303H88.1559V85.6024H195.846C208.609 85.6024 219.678 87.7961 229.051 92.1835C238.623 96.3714 246.002 102.454 251.187 110.431C256.571 118.209 259.264 127.582 259.264 138.55V141.541C259.264 151.114 257.469 158.991 253.879 165.173C250.289 171.156 246.002 175.843 241.016 179.233C236.23 182.424 231.643 184.717 227.256 186.113V191.498C231.643 192.694 236.429 194.988 241.614 198.378C246.8 201.569 251.187 206.255 254.777 212.438C258.566 218.62 260.46 226.697 260.46 236.668V239.659C260.46 251.226 257.768 261.197 252.383 269.573C246.999 277.75 239.52 284.032 229.948 288.419C220.575 292.806 209.607 295 197.043 295H88.1559ZM155.163 259.103H192.256C200.832 259.103 207.712 257.009 212.897 252.821C218.282 248.633 220.974 242.651 220.974 234.873V231.882C220.974 224.104 218.381 218.121 213.196 213.933C208.011 209.745 201.031 207.651 192.256 207.651H155.163V259.103ZM155.163 171.755H191.658C199.835 171.755 206.515 169.661 211.701 165.473C217.085 161.285 219.777 155.501 219.777 148.123V145.131C219.777 137.553 217.185 131.77 212 127.781C206.815 123.593 200.034 121.499 191.658 121.499H155.163V171.755ZM365.477 299.188C349.323 299.188 335.064 296.296 322.7 290.513C310.335 284.73 300.663 276.453 293.683 265.684C286.703 254.915 283.214 241.953 283.214 226.796V218.42H322.102V226.796C322.102 239.36 325.99 248.833 333.768 255.214C341.546 261.397 352.115 264.488 365.477 264.488C379.038 264.488 389.109 261.796 395.69 256.411C402.47 251.027 405.861 244.146 405.861 235.77C405.861 229.987 404.166 225.301 400.775 221.711C397.584 218.121 392.798 215.229 386.417 213.036C380.234 210.643 372.656 208.449 363.682 206.455L356.802 204.959C342.443 201.768 330.079 197.78 319.709 192.993C309.538 188.008 301.66 181.526 296.077 173.549C290.692 165.572 288 155.202 288 142.439C288 129.676 290.991 118.807 296.974 109.833C303.156 100.659 311.731 93.6792 322.7 88.8929C333.868 83.9073 346.93 81.4145 361.887 81.4145C376.844 81.4145 390.106 84.007 401.673 89.1921C413.439 94.1777 422.612 101.756 429.194 111.927C435.974 121.898 439.364 134.462 439.364 149.618V158.592H400.476V149.618C400.476 141.641 398.881 135.26 395.69 130.473C392.699 125.488 388.311 121.898 382.528 119.704C376.744 117.311 369.864 116.115 361.887 116.115C349.922 116.115 341.047 118.408 335.264 122.995C329.68 127.382 326.888 133.465 326.888 141.242C326.888 146.427 328.184 150.815 330.777 154.404C333.569 157.994 337.657 160.986 343.041 163.379C348.426 165.772 355.306 167.866 363.682 169.661L370.562 171.156C385.519 174.347 398.482 178.435 409.45 183.421C420.618 188.407 429.293 194.988 435.475 203.164C441.658 211.341 444.749 221.811 444.749 234.574C444.749 247.337 441.458 258.605 434.877 268.377C428.496 277.949 419.322 285.527 407.356 291.111C395.59 296.496 381.63 299.188 365.477 299.188ZM553.769 299.188C527.843 299.188 507.302 292.009 492.146 277.65C476.99 263.092 469.411 242.351 469.411 215.429V165.173C469.411 138.251 476.99 117.61 492.146 103.252C507.302 88.6935 527.843 81.4145 553.769 81.4145C579.495 81.4145 599.338 88.4941 613.297 102.653C627.457 116.613 634.536 135.858 634.536 160.387V162.182H595.648V159.191C595.648 146.826 592.158 136.656 585.178 128.678C578.398 120.701 567.928 116.713 553.769 116.713C539.809 116.713 528.84 121.001 520.863 129.576C512.886 138.151 508.898 149.818 508.898 164.575V216.027C508.898 230.585 512.886 242.252 520.863 251.027C528.84 259.602 539.809 263.89 553.769 263.89C567.928 263.89 578.398 259.901 585.178 251.924C592.158 243.747 595.648 233.577 595.648 221.412V216.027H634.536V220.215C634.536 244.745 627.457 264.089 613.297 278.248C599.338 292.208 579.495 299.188 553.769 299.188ZM735.484 295V269.872C735.484 255.314 737.877 243.249 742.664 233.676C747.45 223.905 754.33 215.927 763.304 209.745C772.478 203.364 783.646 198.179 796.808 194.19L816.85 187.908C824.229 185.515 830.411 182.623 835.397 179.233C840.382 175.643 844.172 171.356 846.764 166.37C849.556 161.384 850.952 155.701 850.952 149.319V148.123C850.952 138.151 847.562 130.274 840.781 124.491C834.001 118.508 824.728 115.516 812.961 115.516C801.395 115.516 792.022 118.707 784.842 125.089C777.862 131.271 774.372 140.245 774.372 152.011V157.396H736.083V152.61C736.083 137.453 739.473 124.59 746.253 114.021C753.034 103.451 762.207 95.3743 773.774 89.7904C785.54 84.2064 798.603 81.4145 812.961 81.4145C827.32 81.4145 840.283 84.2064 851.85 89.7904C863.416 95.1749 872.49 102.853 879.071 112.824C885.852 122.596 889.242 134.163 889.242 147.524V150.516C889.242 163.877 886.45 175.245 880.866 184.618C875.482 193.791 868.103 201.369 858.73 207.352C849.357 213.136 838.687 217.922 826.722 221.711L807.577 227.694C799.002 230.286 792.321 233.178 787.535 236.369C782.748 239.36 779.358 242.75 777.364 246.539C775.569 250.129 774.672 254.516 774.672 259.702V260.898H887.447V295H735.484ZM997.456 299.188C972.727 299.188 952.884 292.407 937.927 278.846C922.97 265.086 915.491 244.346 915.491 216.625V163.977C915.491 137.054 922.97 116.613 937.927 102.653C952.884 88.4941 972.727 81.4145 997.456 81.4145C1022.38 81.4145 1042.23 88.4941 1056.98 102.653C1071.94 116.613 1079.42 137.054 1079.42 163.977V216.625C1079.42 244.346 1071.94 265.086 1056.98 278.846C1042.23 292.407 1022.38 299.188 997.456 299.188ZM997.456 265.086C1012.41 265.086 1023.38 260.998 1030.36 252.821C1037.54 244.645 1041.13 232.978 1041.13 217.822V162.182C1041.13 146.826 1037.14 135.26 1029.16 127.482C1021.39 119.505 1010.82 115.516 997.456 115.516C983.695 115.516 972.926 119.605 965.149 127.781C957.57 135.958 953.781 147.425 953.781 162.182V217.822C953.781 233.577 957.371 245.443 964.55 253.42C971.929 261.197 982.897 265.086 997.456 265.086ZM1107.07 295V269.872C1107.07 255.314 1109.46 243.249 1114.25 233.676C1119.04 223.905 1125.92 215.927 1134.89 209.745C1144.07 203.364 1155.23 198.179 1168.4 194.19L1188.44 187.908C1195.82 185.515 1202 182.623 1206.98 179.233C1211.97 175.643 1215.76 171.356 1218.35 166.37C1221.14 161.384 1222.54 155.701 1222.54 149.319V148.123C1222.54 138.151 1219.15 130.274 1212.37 124.491C1205.59 118.508 1196.31 115.516 1184.55 115.516C1172.98 115.516 1163.61 118.707 1156.43 125.089C1149.45 131.271 1145.96 140.245 1145.96 152.011V157.396H1107.67V152.61C1107.67 137.453 1111.06 124.59 1117.84 114.021C1124.62 103.451 1133.79 95.3743 1145.36 89.7904C1157.13 84.2064 1170.19 81.4145 1184.55 81.4145C1198.91 81.4145 1211.87 84.2064 1223.44 89.7904C1235 95.1749 1244.08 102.853 1250.66 112.824C1257.44 122.596 1260.83 134.163 1260.83 147.524V150.516C1260.83 163.877 1258.04 175.245 1252.45 184.618C1247.07 193.791 1239.69 201.369 1230.32 207.352C1220.94 213.136 1210.27 217.922 1198.31 221.711L1179.16 227.694C1170.59 230.286 1163.91 233.178 1159.12 236.369C1154.34 239.36 1150.95 242.75 1148.95 246.539C1147.16 250.129 1146.26 254.516 1146.26 259.702V260.898H1259.03V295H1107.07ZM1362.76 299.188C1346.41 299.188 1332.25 296.296 1320.28 290.513C1308.52 284.73 1299.44 276.553 1293.06 265.983C1286.68 255.414 1283.49 243.149 1283.49 229.189V226.198H1322.38V228.89C1322.38 238.862 1325.67 247.437 1332.25 254.616C1339.03 261.596 1349 265.086 1362.16 265.086C1375.32 265.086 1385.4 261.596 1392.38 254.616C1399.55 247.437 1403.14 238.164 1403.14 226.796V223.805C1403.14 212.637 1399.55 203.762 1392.38 197.181C1385.4 190.6 1376.62 187.31 1366.05 187.31C1360.27 187.31 1355.48 188.108 1351.69 189.703C1347.9 191.298 1344.81 193.293 1342.42 195.686C1340.03 198.079 1338.03 200.472 1336.44 202.865H1290.07V85.6024H1433.06V120.303H1328.36V171.455H1333.74C1335.74 168.863 1338.43 166.37 1341.82 163.977C1345.21 161.584 1349.6 159.59 1354.98 157.994C1360.37 156.399 1366.75 155.601 1374.13 155.601C1386.49 155.601 1397.76 158.194 1407.93 163.379C1418.1 168.564 1426.18 176.242 1432.16 186.412C1438.34 196.384 1441.43 208.748 1441.43 223.506V227.095C1441.43 241.853 1438.24 254.616 1431.86 265.385C1425.68 276.154 1416.71 284.53 1404.94 290.513C1393.17 296.296 1379.11 299.188 1362.76 299.188Z" fill="url(#paint0_linear_3480_24)"/>
<mask id="mask0_3480_24" style="mask-type:alpha" maskUnits="userSpaceOnUse" x="12" y="23" width="1503" height="359">
<rect x="12" y="23.6211" width="1502.37" height="358.196" fill="url(#paint1_linear_3480_24)"/>
</mask>
<g mask="url(#mask0_3480_24)">
<g filter="url(#filter0_f_3480_24)">
<path d="M375.586 101.102C345.532 172.052 165.522 202.88 79.2739 209.426V301.707H1443.76V239.587C1443.76 191.714 1345.69 115.348 1258.03 76.2028C1170.38 37.0572 1059.79 127.67 961.872 163.221C863.957 198.773 748.993 81.5935 650.926 30.1267C552.86 -21.34 413.153 12.415 375.586 101.102Z" fill="url(#paint2_radial_3480_24)"/>
</g>
</g>
</g>
<defs>
<filter id="filter0_f_3480_24" x="-23.4346" y="-96.8022" width="1569.9" height="501.214" filterUnits="userSpaceOnUse" color-interpolation-filters="sRGB">
<feFlood flood-opacity="0" result="BackgroundImageFix"/>
<feBlend mode="normal" in="SourceGraphic" in2="BackgroundImageFix" result="shape"/>
<feGaussianBlur stdDeviation="51.3542" result="effect1_foregroundBlur_3480_24"/>
</filter>
<linearGradient id="paint0_linear_3480_24" x1="763.396" y1="0" x2="763.396" y2="294.656" gradientUnits="userSpaceOnUse">
<stop stop-color="white"/>
<stop offset="0.832894" stop-color="#070708"/>
</linearGradient>
<linearGradient id="paint1_linear_3480_24" x1="763.184" y1="23.6211" x2="763.184" y2="381.817" gradientUnits="userSpaceOnUse">
<stop stop-color="white" stop-opacity="0.1"/>
<stop offset="0.403955" stop-color="white" stop-opacity="0.38"/>
<stop offset="0.736004" stop-color="white"/>
</linearGradient>
<radialGradient id="paint2_radial_3480_24" cx="0" cy="0" r="1" gradientUnits="userSpaceOnUse" gradientTransform="translate(761.515 153.806) scale(682.241 147.9)">
<stop stop-color="#1A48FE"/>
<stop offset="1" stop-color="#751AFE"/>
</radialGradient>
<clipPath id="clip0_3480_24">
<rect width="1527" height="262" fill="white"/>
</clipPath>
</defs>
</svg>
